<mxfile host="Electron" agent="Mozilla/5.0 (Macintosh; Intel Mac OS X 10_15_7) AppleWebKit/537.36 (KHTML, like Gecko) draw.io/26.1.1 Chrome/132.0.6834.210 Electron/34.3.3 Safari/537.36" version="26.1.1">
  <diagram name="Page-1" id="CaXZf2rdQYfuzhKCZU3R">
    <mxGraphModel dx="1114" dy="878" grid="1" gridSize="10" guides="1" tooltips="1" connect="1" arrows="1" fold="1" page="1" pageScale="1" pageWidth="827" pageHeight="1169" math="0" shadow="0">
      <root>
        <mxCell id="0" />
        <mxCell id="1" parent="0" />
        <mxCell id="X-3a0VnkJdVYdU_NfV2R-1" style="edgeStyle=orthogonalEdgeStyle;rounded=0;orthogonalLoop=1;jettySize=auto;html=1;entryX=0;entryY=0.5;entryDx=0;entryDy=0;endArrow=block;endFill=1;entryPerimeter=0;" edge="1" parent="1" source="X-3a0VnkJdVYdU_NfV2R-3" target="X-3a0VnkJdVYdU_NfV2R-15">
          <mxGeometry relative="1" as="geometry">
            <Array as="points">
              <mxPoint x="200" y="165" />
              <mxPoint x="200" y="305" />
            </Array>
          </mxGeometry>
        </mxCell>
        <mxCell id="X-3a0VnkJdVYdU_NfV2R-2" value="유입" style="edgeLabel;html=1;align=center;verticalAlign=middle;resizable=0;points=[];fontSize=13;" vertex="1" connectable="0" parent="X-3a0VnkJdVYdU_NfV2R-1">
          <mxGeometry x="-0.7" y="3" relative="1" as="geometry">
            <mxPoint x="-10" y="2" as="offset" />
          </mxGeometry>
        </mxCell>
        <mxCell id="X-3a0VnkJdVYdU_NfV2R-3" value="" style="shape=cylinder3;whiteSpace=wrap;html=1;boundedLbl=1;backgroundOutline=1;size=15;fillColor=#f5f5f5;fontColor=#333333;strokeColor=#666666;" vertex="1" parent="1">
          <mxGeometry x="90" y="140" width="60" height="50" as="geometry" />
        </mxCell>
        <mxCell id="X-3a0VnkJdVYdU_NfV2R-4" value="실시간&lt;div&gt;데이처처리&lt;br&gt;시스템 A&lt;/div&gt;" style="text;html=1;align=center;verticalAlign=middle;whiteSpace=wrap;rounded=0;" vertex="1" parent="1">
          <mxGeometry x="85" y="191" width="70" height="50" as="geometry" />
        </mxCell>
        <mxCell id="X-3a0VnkJdVYdU_NfV2R-5" value="" style="shape=cylinder3;whiteSpace=wrap;html=1;boundedLbl=1;backgroundOutline=1;size=15;fillColor=#f5f5f5;fontColor=#333333;strokeColor=#666666;" vertex="1" parent="1">
          <mxGeometry x="90" y="280" width="60" height="50" as="geometry" />
        </mxCell>
        <mxCell id="X-3a0VnkJdVYdU_NfV2R-6" value="실시간&lt;div&gt;데이처처리&lt;br&gt;시스템 B&lt;/div&gt;" style="text;html=1;align=center;verticalAlign=middle;whiteSpace=wrap;rounded=0;" vertex="1" parent="1">
          <mxGeometry x="85" y="331" width="70" height="50" as="geometry" />
        </mxCell>
        <mxCell id="X-3a0VnkJdVYdU_NfV2R-7" style="edgeStyle=orthogonalEdgeStyle;rounded=0;orthogonalLoop=1;jettySize=auto;html=1;endArrow=block;endFill=1;entryX=0;entryY=0.5;entryDx=0;entryDy=0;entryPerimeter=0;" edge="1" parent="1" source="X-3a0VnkJdVYdU_NfV2R-9" target="X-3a0VnkJdVYdU_NfV2R-15">
          <mxGeometry relative="1" as="geometry">
            <Array as="points">
              <mxPoint x="200" y="445" />
              <mxPoint x="200" y="305" />
            </Array>
          </mxGeometry>
        </mxCell>
        <mxCell id="X-3a0VnkJdVYdU_NfV2R-8" value="유입" style="edgeLabel;html=1;align=center;verticalAlign=middle;resizable=0;points=[];fontSize=13;" vertex="1" connectable="0" parent="X-3a0VnkJdVYdU_NfV2R-7">
          <mxGeometry x="-0.7444" y="1" relative="1" as="geometry">
            <mxPoint x="-3" as="offset" />
          </mxGeometry>
        </mxCell>
        <mxCell id="X-3a0VnkJdVYdU_NfV2R-9" value="" style="shape=cylinder3;whiteSpace=wrap;html=1;boundedLbl=1;backgroundOutline=1;size=15;fillColor=#f5f5f5;fontColor=#333333;strokeColor=#666666;" vertex="1" parent="1">
          <mxGeometry x="90" y="420" width="60" height="50" as="geometry" />
        </mxCell>
        <mxCell id="X-3a0VnkJdVYdU_NfV2R-10" value="로그" style="text;html=1;align=center;verticalAlign=middle;whiteSpace=wrap;rounded=0;" vertex="1" parent="1">
          <mxGeometry x="97" y="471" width="45" height="19" as="geometry" />
        </mxCell>
        <mxCell id="X-3a0VnkJdVYdU_NfV2R-12" value="변환" style="rounded=0;whiteSpace=wrap;html=1;" vertex="1" parent="1">
          <mxGeometry x="354" y="290" width="60" height="30" as="geometry" />
        </mxCell>
        <mxCell id="X-3a0VnkJdVYdU_NfV2R-14" style="edgeStyle=orthogonalEdgeStyle;rounded=0;orthogonalLoop=1;jettySize=auto;html=1;entryX=0;entryY=0.5;entryDx=0;entryDy=0;endArrow=block;endFill=1;" edge="1" parent="1" source="X-3a0VnkJdVYdU_NfV2R-15" target="X-3a0VnkJdVYdU_NfV2R-12">
          <mxGeometry relative="1" as="geometry" />
        </mxCell>
        <mxCell id="X-3a0VnkJdVYdU_NfV2R-34" value="추출" style="edgeLabel;html=1;align=center;verticalAlign=middle;resizable=0;points=[];fontSize=13;" vertex="1" connectable="0" parent="X-3a0VnkJdVYdU_NfV2R-14">
          <mxGeometry x="-0.2444" y="1" relative="1" as="geometry">
            <mxPoint x="3" as="offset" />
          </mxGeometry>
        </mxCell>
        <mxCell id="X-3a0VnkJdVYdU_NfV2R-15" value="" style="shape=cylinder3;whiteSpace=wrap;html=1;boundedLbl=1;backgroundOutline=1;size=15;fillColor=#d5e8d4;strokeColor=#82b366;" vertex="1" parent="1">
          <mxGeometry x="225" y="280" width="60" height="50" as="geometry" />
        </mxCell>
        <mxCell id="X-3a0VnkJdVYdU_NfV2R-16" value="데이터 레이크" style="text;html=1;align=center;verticalAlign=middle;whiteSpace=wrap;rounded=0;" vertex="1" parent="1">
          <mxGeometry x="217" y="328" width="75" height="29" as="geometry" />
        </mxCell>
        <mxCell id="X-3a0VnkJdVYdU_NfV2R-17" style="edgeStyle=orthogonalEdgeStyle;rounded=0;orthogonalLoop=1;jettySize=auto;html=1;entryX=0;entryY=0.5;entryDx=0;entryDy=0;endArrow=block;endFill=1;" edge="1" parent="1" source="X-3a0VnkJdVYdU_NfV2R-20" target="X-3a0VnkJdVYdU_NfV2R-23">
          <mxGeometry relative="1" as="geometry" />
        </mxCell>
        <mxCell id="X-3a0VnkJdVYdU_NfV2R-18" style="edgeStyle=orthogonalEdgeStyle;rounded=0;orthogonalLoop=1;jettySize=auto;html=1;entryX=0;entryY=0.5;entryDx=0;entryDy=0;endArrow=block;endFill=1;" edge="1" parent="1" source="X-3a0VnkJdVYdU_NfV2R-20" target="X-3a0VnkJdVYdU_NfV2R-24">
          <mxGeometry relative="1" as="geometry" />
        </mxCell>
        <mxCell id="X-3a0VnkJdVYdU_NfV2R-19" style="edgeStyle=orthogonalEdgeStyle;rounded=0;orthogonalLoop=1;jettySize=auto;html=1;entryX=0;entryY=0.5;entryDx=0;entryDy=0;endArrow=block;endFill=1;" edge="1" parent="1" source="X-3a0VnkJdVYdU_NfV2R-20" target="X-3a0VnkJdVYdU_NfV2R-22">
          <mxGeometry relative="1" as="geometry" />
        </mxCell>
        <mxCell id="X-3a0VnkJdVYdU_NfV2R-20" value="" style="shape=cylinder3;whiteSpace=wrap;html=1;boundedLbl=1;backgroundOutline=1;size=15;fillColor=#dae8fc;strokeColor=#6c8ebf;" vertex="1" parent="1">
          <mxGeometry x="474" y="275" width="60" height="50" as="geometry" />
        </mxCell>
        <mxCell id="X-3a0VnkJdVYdU_NfV2R-21" value="엔터프라이즈&lt;div&gt;데이터 웨어하우스&lt;/div&gt;" style="text;html=1;align=center;verticalAlign=middle;whiteSpace=wrap;rounded=0;" vertex="1" parent="1">
          <mxGeometry x="460" y="328" width="90" height="29" as="geometry" />
        </mxCell>
        <mxCell id="X-3a0VnkJdVYdU_NfV2R-22" value="분석" style="rounded=0;whiteSpace=wrap;html=1;" vertex="1" parent="1">
          <mxGeometry x="610" y="150" width="60" height="30" as="geometry" />
        </mxCell>
        <mxCell id="X-3a0VnkJdVYdU_NfV2R-23" value="리포트" style="rounded=0;whiteSpace=wrap;html=1;" vertex="1" parent="1">
          <mxGeometry x="610" y="285" width="60" height="30" as="geometry" />
        </mxCell>
        <mxCell id="X-3a0VnkJdVYdU_NfV2R-24" value="마이닝" style="rounded=0;whiteSpace=wrap;html=1;" vertex="1" parent="1">
          <mxGeometry x="610" y="430" width="60" height="30" as="geometry" />
        </mxCell>
        <mxCell id="X-3a0VnkJdVYdU_NfV2R-25" style="edgeStyle=orthogonalEdgeStyle;rounded=0;orthogonalLoop=1;jettySize=auto;html=1;entryX=0;entryY=0.5;entryDx=0;entryDy=0;entryPerimeter=0;endArrow=block;endFill=1;" edge="1" parent="1" source="X-3a0VnkJdVYdU_NfV2R-5" target="X-3a0VnkJdVYdU_NfV2R-15">
          <mxGeometry relative="1" as="geometry" />
        </mxCell>
        <mxCell id="X-3a0VnkJdVYdU_NfV2R-26" value="유입" style="edgeLabel;html=1;align=center;verticalAlign=middle;resizable=0;points=[];fontSize=13;" vertex="1" connectable="0" parent="X-3a0VnkJdVYdU_NfV2R-25">
          <mxGeometry x="-0.2" y="1" relative="1" as="geometry">
            <mxPoint x="-7" as="offset" />
          </mxGeometry>
        </mxCell>
        <mxCell id="X-3a0VnkJdVYdU_NfV2R-28" style="edgeStyle=orthogonalEdgeStyle;rounded=0;orthogonalLoop=1;jettySize=auto;html=1;entryX=0;entryY=0;entryDx=0;entryDy=30;entryPerimeter=0;endArrow=block;endFill=1;" edge="1" parent="1" source="X-3a0VnkJdVYdU_NfV2R-12" target="X-3a0VnkJdVYdU_NfV2R-20">
          <mxGeometry relative="1" as="geometry" />
        </mxCell>
        <mxCell id="X-3a0VnkJdVYdU_NfV2R-35" value="적재" style="edgeLabel;html=1;align=center;verticalAlign=middle;resizable=0;points=[];fontSize=13;" vertex="1" connectable="0" parent="X-3a0VnkJdVYdU_NfV2R-28">
          <mxGeometry x="-0.1667" y="-2" relative="1" as="geometry">
            <mxPoint y="-3" as="offset" />
          </mxGeometry>
        </mxCell>
        <mxCell id="X-3a0VnkJdVYdU_NfV2R-31" value="데이터 원천" style="text;html=1;align=center;verticalAlign=middle;whiteSpace=wrap;rounded=0;fontStyle=1;fontSize=13;" vertex="1" parent="1">
          <mxGeometry x="84.25" y="90" width="70.5" height="30" as="geometry" />
        </mxCell>
        <mxCell id="X-3a0VnkJdVYdU_NfV2R-33" value="사용자" style="text;html=1;align=center;verticalAlign=middle;whiteSpace=wrap;rounded=0;fontStyle=1;fontSize=13;" vertex="1" parent="1">
          <mxGeometry x="599.5" y="90" width="70.5" height="30" as="geometry" />
        </mxCell>
      </root>
    </mxGraphModel>
  </diagram>
</mxfile>
